name Precision Landing04_filtered_grf.mot
datacolumns 37
datarows 6
range 1.157500 1.160000
endheader
time	1_ground_force_vx	1_ground_force_vy	1_ground_force_vz	1_ground_force_px	1_ground_force_py	1_ground_force_pz	1_ground_torque_x	1_ground_torque_y	1_ground_torque_z	2_ground_force_vx	2_ground_force_vy	2_ground_force_vz	2_ground_force_px	2_ground_force_py	2_ground_force_pz	2_ground_torque_x	2_ground_torque_y	2_ground_torque_z	3_ground_force_vx	3_ground_force_vy	3_ground_force_vz	3_ground_force_px	3_ground_force_py	3_ground_force_pz	3_ground_torque_x	3_ground_torque_y	3_ground_torque_z	4_ground_force_vx	4_ground_force_vy	4_ground_force_vz	4_ground_force_px	4_ground_force_py	4_ground_force_pz	4_ground_torque_x	4_ground_torque_y	4_ground_torque_z
            1.157500	          -39.682184	          815.005751	          126.826378	            0.122844	            0.000000	            0.243861	           -0.763783	           15.686822	            2.441091	           14.667082	          500.065242	           69.982553	           -0.116564	            0.000000	            0.288421	            0.428412	           14.606456	            2.044127	            1.540458	           -0.944000	           -1.088604	            0.352080	            1.256341	            1.893089	           -0.009242	           -0.008132	            0.010041	           -4.575031	            0.726417	            2.574977	           -0.289099	            1.265026	            1.901579	           -0.038201	            0.171189	           -0.005677
            1.158000	          -39.029948	          812.849200	          126.093772	            0.122939	            0.000000	            0.243934	           -0.754926	           15.722313	            2.438934	           14.346270	          501.264590	           69.280612	           -0.116440	            0.000000	            0.288568	            0.413481	           14.447194	            1.996771	            1.539292	           -0.956900	           -1.076253	            0.352083	            1.256342	            1.893082	           -0.009361	           -0.007602	            0.010626	           -4.575024	            0.717763	            2.589185	           -0.289096	            1.265026	            1.901571	           -0.038325	            0.170546	           -0.005347
            1.158500	          -38.373171	          810.644532	          125.367430	            0.123037	            0.000000	            0.244008	           -0.745831	           15.755895	            2.436673	           14.028021	          502.507304	           68.567334	           -0.116317	            0.000000	            0.288720	            0.398802	           14.285765	            1.949299	            1.537177	           -0.969731	           -1.062345	            0.352087	            1.256342	            1.893074	           -0.009470	           -0.007056	            0.011192	           -4.573102	            0.708355	            2.605688	           -0.289093	            1.265025	            1.901564	           -0.038428	            0.169768	           -0.004991
            1.159000	          -37.713752	          808.394234	          124.647618	            0.123139	            0.000000	            0.244084	           -0.736514	           15.787173	            2.434250	           13.714526	          503.792309	           67.844447	           -0.116197	            0.000000	            0.288877	            0.384456	           14.122687	            1.901867	            1.534141	           -0.982291	           -1.046941	            0.352090	            1.256343	            1.893066	           -0.009568	           -0.006497	            0.011732	           -4.569396	            0.698306	            2.624544	           -0.289089	            1.265025	            1.901557	           -0.038505	            0.168859	           -0.004611
            1.159500	          -37.053574	          806.100867	          123.934574	            0.123245	            0.000000	            0.244161	           -0.726997	           15.815828	            2.431616	           13.407993	          505.118538	           67.113627	           -0.116080	            0.000000	            0.289038	            0.370517	           13.958471	            1.854621	            1.530225	           -0.994382	           -1.030123	            0.352093	            1.256344	            1.893058	           -0.009653	           -0.005930	            0.012243	           -4.564059	            0.687740	            2.645776	           -0.289086	            1.265024	            1.901549	           -0.038553	            0.167823	           -0.004209
            1.160000	          -36.394503	          803.767071	          123.228497	            0.123355	            0.000000	            0.244238	           -0.717307	           15.841619	            2.428737	           13.110616	          506.484953	           66.376466	           -0.115965	            0.000000	            0.289204	            0.357055	           13.793615	            1.807697	            1.525478	           -1.005809	           -1.011994	            0.352096	            1.256344	            1.893051	           -0.009724	           -0.005360	            0.012721	           -4.557268	            0.676791	            2.669375	           -0.289082	            1.265024	            1.901542	           -0.038570	            0.166669	           -0.003786
